<mxfile host="app.diagrams.net" modified="2023-09-17T23:04:55.165Z" agent="Mozilla/5.0 (Windows NT 10.0; Win64; x64; rv:109.0) Gecko/20100101 Firefox/117.0" etag="HQu0aW9-mFoBjBa7-Eh4" version="21.7.5" type="github">
  <diagram id="C5RBs43oDa-KdzZeNtuy" name="Page-1">
    <mxGraphModel dx="1235" dy="1835" grid="1" gridSize="10" guides="1" tooltips="1" connect="1" arrows="1" fold="1" page="1" pageScale="1" pageWidth="827" pageHeight="1169" math="0" shadow="0">
      <root>
        <mxCell id="WIyWlLk6GJQsqaUBKTNV-0" />
        <mxCell id="WIyWlLk6GJQsqaUBKTNV-1" parent="WIyWlLk6GJQsqaUBKTNV-0" />
        <mxCell id="8RGstxOjwjv9jnQM3LrZ-42" value="System" style="swimlane;fontStyle=0;align=center;verticalAlign=top;childLayout=stackLayout;horizontal=1;startSize=26;horizontalStack=0;resizeParent=1;resizeLast=0;collapsible=1;marginBottom=0;rounded=0;shadow=0;strokeWidth=1;fillColor=none;fontSize=14;" vertex="1" parent="WIyWlLk6GJQsqaUBKTNV-1">
          <mxGeometry x="66" y="-1042" width="234" height="322" as="geometry">
            <mxRectangle x="230" y="140" width="160" height="26" as="alternateBounds" />
          </mxGeometry>
        </mxCell>
        <mxCell id="8RGstxOjwjv9jnQM3LrZ-43" value="-OTP: Number" style="text;align=left;verticalAlign=top;spacingLeft=4;spacingRight=4;overflow=hidden;rotatable=0;points=[[0,0.5],[1,0.5]];portConstraint=eastwest;fontSize=14;" vertex="1" parent="8RGstxOjwjv9jnQM3LrZ-42">
          <mxGeometry y="26" width="234" height="26" as="geometry" />
        </mxCell>
        <mxCell id="8RGstxOjwjv9jnQM3LrZ-44" value="-SelectedEmail: String" style="text;align=left;verticalAlign=top;spacingLeft=4;spacingRight=4;overflow=hidden;rotatable=0;points=[[0,0.5],[1,0.5]];portConstraint=eastwest;rounded=0;shadow=0;html=0;fontSize=14;" vertex="1" parent="8RGstxOjwjv9jnQM3LrZ-42">
          <mxGeometry y="52" width="234" height="26" as="geometry" />
        </mxCell>
        <mxCell id="8RGstxOjwjv9jnQM3LrZ-45" value="-Tokens: String/JSON String" style="text;align=left;verticalAlign=top;spacingLeft=4;spacingRight=4;overflow=hidden;rotatable=0;points=[[0,0.5],[1,0.5]];portConstraint=eastwest;rounded=0;shadow=0;html=0;fontSize=14;" vertex="1" parent="8RGstxOjwjv9jnQM3LrZ-42">
          <mxGeometry y="78" width="234" height="26" as="geometry" />
        </mxCell>
        <mxCell id="8RGstxOjwjv9jnQM3LrZ-88" value="-FetchedEmails: String/String Array" style="text;align=left;verticalAlign=top;spacingLeft=4;spacingRight=4;overflow=hidden;rotatable=0;points=[[0,0.5],[1,0.5]];portConstraint=eastwest;rounded=0;shadow=0;html=0;fontSize=14;" vertex="1" parent="8RGstxOjwjv9jnQM3LrZ-42">
          <mxGeometry y="104" width="234" height="26" as="geometry" />
        </mxCell>
        <mxCell id="8RGstxOjwjv9jnQM3LrZ-87" value="-EmailsBlockList: String/String Array" style="text;align=left;verticalAlign=top;spacingLeft=4;spacingRight=4;overflow=hidden;rotatable=0;points=[[0,0.5],[1,0.5]];portConstraint=eastwest;rounded=0;shadow=0;html=0;fontSize=14;" vertex="1" parent="8RGstxOjwjv9jnQM3LrZ-42">
          <mxGeometry y="130" width="234" height="26" as="geometry" />
        </mxCell>
        <mxCell id="8RGstxOjwjv9jnQM3LrZ-56" value="+NoEmails: Number/String" style="text;align=left;verticalAlign=top;spacingLeft=4;spacingRight=4;overflow=hidden;rotatable=0;points=[[0,0.5],[1,0.5]];portConstraint=eastwest;rounded=0;shadow=0;html=0;fontSize=14;" vertex="1" parent="8RGstxOjwjv9jnQM3LrZ-42">
          <mxGeometry y="156" width="234" height="26" as="geometry" />
        </mxCell>
        <mxCell id="8RGstxOjwjv9jnQM3LrZ-46" value="" style="line;html=1;strokeWidth=1;align=left;verticalAlign=middle;spacingTop=-1;spacingLeft=3;spacingRight=3;rotatable=0;labelPosition=right;points=[];portConstraint=eastwest;" vertex="1" parent="8RGstxOjwjv9jnQM3LrZ-42">
          <mxGeometry y="182" width="234" height="8" as="geometry" />
        </mxCell>
        <mxCell id="8RGstxOjwjv9jnQM3LrZ-47" value="+OTPVerification()" style="text;align=left;verticalAlign=top;spacingLeft=4;spacingRight=4;overflow=hidden;rotatable=0;points=[[0,0.5],[1,0.5]];portConstraint=eastwest;fontSize=14;" vertex="1" parent="8RGstxOjwjv9jnQM3LrZ-42">
          <mxGeometry y="190" width="234" height="26" as="geometry" />
        </mxCell>
        <mxCell id="8RGstxOjwjv9jnQM3LrZ-48" value="+Authorization()" style="text;align=left;verticalAlign=top;spacingLeft=4;spacingRight=4;overflow=hidden;rotatable=0;points=[[0,0.5],[1,0.5]];portConstraint=eastwest;fontSize=14;" vertex="1" parent="8RGstxOjwjv9jnQM3LrZ-42">
          <mxGeometry y="216" width="234" height="26" as="geometry" />
        </mxCell>
        <mxCell id="8RGstxOjwjv9jnQM3LrZ-49" value="+TokenGeneration()" style="text;align=left;verticalAlign=top;spacingLeft=4;spacingRight=4;overflow=hidden;rotatable=0;points=[[0,0.5],[1,0.5]];portConstraint=eastwest;fontSize=14;" vertex="1" parent="8RGstxOjwjv9jnQM3LrZ-42">
          <mxGeometry y="242" width="234" height="26" as="geometry" />
        </mxCell>
        <mxCell id="8RGstxOjwjv9jnQM3LrZ-78" value="+EmailBlocking()" style="text;align=left;verticalAlign=top;spacingLeft=4;spacingRight=4;overflow=hidden;rotatable=0;points=[[0,0.5],[1,0.5]];portConstraint=eastwest;fontSize=14;" vertex="1" parent="8RGstxOjwjv9jnQM3LrZ-42">
          <mxGeometry y="268" width="234" height="28" as="geometry" />
        </mxCell>
        <mxCell id="8RGstxOjwjv9jnQM3LrZ-77" value="+EmailFetching()" style="text;align=left;verticalAlign=top;spacingLeft=4;spacingRight=4;overflow=hidden;rotatable=0;points=[[0,0.5],[1,0.5]];portConstraint=eastwest;fontSize=14;" vertex="1" parent="8RGstxOjwjv9jnQM3LrZ-42">
          <mxGeometry y="296" width="234" height="26" as="geometry" />
        </mxCell>
        <mxCell id="8RGstxOjwjv9jnQM3LrZ-50" value="End-user" style="swimlane;fontStyle=0;align=center;verticalAlign=top;childLayout=stackLayout;horizontal=1;startSize=26;horizontalStack=0;resizeParent=1;resizeLast=0;collapsible=1;marginBottom=0;rounded=0;shadow=0;strokeWidth=1;fontSize=14;" vertex="1" parent="WIyWlLk6GJQsqaUBKTNV-1">
          <mxGeometry x="480" y="-1042" width="190" height="298" as="geometry">
            <mxRectangle x="550" y="140" width="160" height="26" as="alternateBounds" />
          </mxGeometry>
        </mxCell>
        <mxCell id="8RGstxOjwjv9jnQM3LrZ-51" value="+Name:  String" style="text;align=left;verticalAlign=top;spacingLeft=4;spacingRight=4;overflow=hidden;rotatable=0;points=[[0,0.5],[1,0.5]];portConstraint=eastwest;fontSize=14;" vertex="1" parent="8RGstxOjwjv9jnQM3LrZ-50">
          <mxGeometry y="26" width="190" height="26" as="geometry" />
        </mxCell>
        <mxCell id="8RGstxOjwjv9jnQM3LrZ-52" value="-Email:  String" style="text;align=left;verticalAlign=top;spacingLeft=4;spacingRight=4;overflow=hidden;rotatable=0;points=[[0,0.5],[1,0.5]];portConstraint=eastwest;rounded=0;shadow=0;html=0;fontSize=14;" vertex="1" parent="8RGstxOjwjv9jnQM3LrZ-50">
          <mxGeometry y="52" width="190" height="26" as="geometry" />
        </mxCell>
        <mxCell id="8RGstxOjwjv9jnQM3LrZ-53" value="-SelectedEmail: String" style="text;align=left;verticalAlign=top;spacingLeft=4;spacingRight=4;overflow=hidden;rotatable=0;points=[[0,0.5],[1,0.5]];portConstraint=eastwest;rounded=0;shadow=0;html=0;fontSize=14;" vertex="1" parent="8RGstxOjwjv9jnQM3LrZ-50">
          <mxGeometry y="78" width="190" height="26" as="geometry" />
        </mxCell>
        <mxCell id="8RGstxOjwjv9jnQM3LrZ-54" value="-ListOfBlockingEmails: String" style="text;align=left;verticalAlign=top;spacingLeft=4;spacingRight=4;overflow=hidden;rotatable=0;points=[[0,0.5],[1,0.5]];portConstraint=eastwest;rounded=0;shadow=0;html=0;fontSize=14;" vertex="1" parent="8RGstxOjwjv9jnQM3LrZ-50">
          <mxGeometry y="104" width="190" height="26" as="geometry" />
        </mxCell>
        <mxCell id="8RGstxOjwjv9jnQM3LrZ-95" value="+NoEmails: Number/String" style="text;align=left;verticalAlign=top;spacingLeft=4;spacingRight=4;overflow=hidden;rotatable=0;points=[[0,0.5],[1,0.5]];portConstraint=eastwest;rounded=0;shadow=0;html=0;fontSize=14;" vertex="1" parent="8RGstxOjwjv9jnQM3LrZ-50">
          <mxGeometry y="130" width="190" height="26" as="geometry" />
        </mxCell>
        <mxCell id="8RGstxOjwjv9jnQM3LrZ-57" value="" style="line;html=1;strokeWidth=1;align=left;verticalAlign=middle;spacingTop=-1;spacingLeft=3;spacingRight=3;rotatable=0;labelPosition=right;points=[];portConstraint=eastwest;" vertex="1" parent="8RGstxOjwjv9jnQM3LrZ-50">
          <mxGeometry y="156" width="190" height="12" as="geometry" />
        </mxCell>
        <mxCell id="8RGstxOjwjv9jnQM3LrZ-58" value="+Registration/Login/Logout()" style="text;align=left;verticalAlign=top;spacingLeft=4;spacingRight=4;overflow=hidden;rotatable=0;points=[[0,0.5],[1,0.5]];portConstraint=eastwest;fontSize=14;" vertex="1" parent="8RGstxOjwjv9jnQM3LrZ-50">
          <mxGeometry y="168" width="190" height="26" as="geometry" />
        </mxCell>
        <mxCell id="8RGstxOjwjv9jnQM3LrZ-59" value="+SelectEmail()" style="text;align=left;verticalAlign=top;spacingLeft=4;spacingRight=4;overflow=hidden;rotatable=0;points=[[0,0.5],[1,0.5]];portConstraint=eastwest;fontSize=14;" vertex="1" parent="8RGstxOjwjv9jnQM3LrZ-50">
          <mxGeometry y="194" width="190" height="26" as="geometry" />
        </mxCell>
        <mxCell id="8RGstxOjwjv9jnQM3LrZ-60" value="+FetchEmail()" style="text;align=left;verticalAlign=top;spacingLeft=4;spacingRight=4;overflow=hidden;rotatable=0;points=[[0,0.5],[1,0.5]];portConstraint=eastwest;fontSize=14;" vertex="1" parent="8RGstxOjwjv9jnQM3LrZ-50">
          <mxGeometry y="220" width="190" height="26" as="geometry" />
        </mxCell>
        <mxCell id="8RGstxOjwjv9jnQM3LrZ-61" value="+SelectEmailsToBeBlocked()" style="text;align=left;verticalAlign=top;spacingLeft=4;spacingRight=4;overflow=hidden;rotatable=0;points=[[0,0.5],[1,0.5]];portConstraint=eastwest;fontSize=14;" vertex="1" parent="8RGstxOjwjv9jnQM3LrZ-50">
          <mxGeometry y="246" width="190" height="26" as="geometry" />
        </mxCell>
        <mxCell id="8RGstxOjwjv9jnQM3LrZ-62" value="+BlockEmails()" style="text;align=left;verticalAlign=top;spacingLeft=4;spacingRight=4;overflow=hidden;rotatable=0;points=[[0,0.5],[1,0.5]];portConstraint=eastwest;fontSize=14;" vertex="1" parent="8RGstxOjwjv9jnQM3LrZ-50">
          <mxGeometry y="272" width="190" height="26" as="geometry" />
        </mxCell>
        <mxCell id="8RGstxOjwjv9jnQM3LrZ-64" value="Gmail API" style="swimlane;fontStyle=0;align=center;verticalAlign=top;childLayout=stackLayout;horizontal=1;startSize=26;horizontalStack=0;resizeParent=1;resizeLast=0;collapsible=1;marginBottom=0;rounded=0;shadow=0;strokeWidth=1;fontSize=14;" vertex="1" parent="WIyWlLk6GJQsqaUBKTNV-1">
          <mxGeometry x="266" y="-664" width="250" height="298" as="geometry">
            <mxRectangle x="550" y="140" width="160" height="26" as="alternateBounds" />
          </mxGeometry>
        </mxCell>
        <mxCell id="8RGstxOjwjv9jnQM3LrZ-65" value="-Email:  String" style="text;align=left;verticalAlign=top;spacingLeft=4;spacingRight=4;overflow=hidden;rotatable=0;points=[[0,0.5],[1,0.5]];portConstraint=eastwest;fontSize=14;" vertex="1" parent="8RGstxOjwjv9jnQM3LrZ-64">
          <mxGeometry y="26" width="250" height="26" as="geometry" />
        </mxCell>
        <mxCell id="8RGstxOjwjv9jnQM3LrZ-66" value="-Tokens:  String/JSON String" style="text;align=left;verticalAlign=top;spacingLeft=4;spacingRight=4;overflow=hidden;rotatable=0;points=[[0,0.5],[1,0.5]];portConstraint=eastwest;rounded=0;shadow=0;html=0;fontSize=14;" vertex="1" parent="8RGstxOjwjv9jnQM3LrZ-64">
          <mxGeometry y="52" width="250" height="26" as="geometry" />
        </mxCell>
        <mxCell id="8RGstxOjwjv9jnQM3LrZ-67" value="-InboxOfUser: Object" style="text;align=left;verticalAlign=top;spacingLeft=4;spacingRight=4;overflow=hidden;rotatable=0;points=[[0,0.5],[1,0.5]];portConstraint=eastwest;rounded=0;shadow=0;html=0;fontSize=14;" vertex="1" parent="8RGstxOjwjv9jnQM3LrZ-64">
          <mxGeometry y="78" width="250" height="26" as="geometry" />
        </mxCell>
        <mxCell id="8RGstxOjwjv9jnQM3LrZ-68" value="-FetchedEmails: String" style="text;align=left;verticalAlign=top;spacingLeft=4;spacingRight=4;overflow=hidden;rotatable=0;points=[[0,0.5],[1,0.5]];portConstraint=eastwest;rounded=0;shadow=0;html=0;fontSize=14;" vertex="1" parent="8RGstxOjwjv9jnQM3LrZ-64">
          <mxGeometry y="104" width="250" height="26" as="geometry" />
        </mxCell>
        <mxCell id="8RGstxOjwjv9jnQM3LrZ-69" value="-SystemSentEmailList: Array of Strings" style="text;align=left;verticalAlign=top;spacingLeft=4;spacingRight=4;overflow=hidden;rotatable=0;points=[[0,0.5],[1,0.5]];portConstraint=eastwest;rounded=0;shadow=0;html=0;fontSize=14;" vertex="1" parent="8RGstxOjwjv9jnQM3LrZ-64">
          <mxGeometry y="130" width="250" height="26" as="geometry" />
        </mxCell>
        <mxCell id="8RGstxOjwjv9jnQM3LrZ-73" value="" style="line;html=1;strokeWidth=1;align=left;verticalAlign=middle;spacingTop=-1;spacingLeft=3;spacingRight=3;rotatable=0;labelPosition=right;points=[];portConstraint=eastwest;" vertex="1" parent="8RGstxOjwjv9jnQM3LrZ-64">
          <mxGeometry y="156" width="250" height="10" as="geometry" />
        </mxCell>
        <mxCell id="8RGstxOjwjv9jnQM3LrZ-74" value="+Authorization()" style="text;align=left;verticalAlign=top;spacingLeft=4;spacingRight=4;overflow=hidden;rotatable=0;points=[[0,0.5],[1,0.5]];portConstraint=eastwest;fontSize=14;" vertex="1" parent="8RGstxOjwjv9jnQM3LrZ-64">
          <mxGeometry y="166" width="250" height="26" as="geometry" />
        </mxCell>
        <mxCell id="8RGstxOjwjv9jnQM3LrZ-75" value="+TokenGeneration()" style="text;align=left;verticalAlign=top;spacingLeft=4;spacingRight=4;overflow=hidden;rotatable=0;points=[[0,0.5],[1,0.5]];portConstraint=eastwest;fontSize=14;" vertex="1" parent="8RGstxOjwjv9jnQM3LrZ-64">
          <mxGeometry y="192" width="250" height="26" as="geometry" />
        </mxCell>
        <mxCell id="8RGstxOjwjv9jnQM3LrZ-76" value="+InboxAccess()" style="text;align=left;verticalAlign=top;spacingLeft=4;spacingRight=4;overflow=hidden;rotatable=0;points=[[0,0.5],[1,0.5]];portConstraint=eastwest;fontSize=14;" vertex="1" parent="8RGstxOjwjv9jnQM3LrZ-64">
          <mxGeometry y="218" width="250" height="26" as="geometry" />
        </mxCell>
        <mxCell id="8RGstxOjwjv9jnQM3LrZ-94" value="+EmailFetching()" style="text;align=left;verticalAlign=top;spacingLeft=4;spacingRight=4;overflow=hidden;rotatable=0;points=[[0,0.5],[1,0.5]];portConstraint=eastwest;fontSize=14;" vertex="1" parent="8RGstxOjwjv9jnQM3LrZ-64">
          <mxGeometry y="244" width="250" height="26" as="geometry" />
        </mxCell>
        <mxCell id="8RGstxOjwjv9jnQM3LrZ-93" value="+EmailBlocking()" style="text;align=left;verticalAlign=top;spacingLeft=4;spacingRight=4;overflow=hidden;rotatable=0;points=[[0,0.5],[1,0.5]];portConstraint=eastwest;fontSize=14;" vertex="1" parent="8RGstxOjwjv9jnQM3LrZ-64">
          <mxGeometry y="270" width="250" height="28" as="geometry" />
        </mxCell>
        <mxCell id="8RGstxOjwjv9jnQM3LrZ-79" value="1..1" style="resizable=0;align=right;verticalAlign=bottom;labelBackgroundColor=none;fontSize=16;" connectable="0" vertex="1" parent="WIyWlLk6GJQsqaUBKTNV-1">
          <mxGeometry x="310" y="-690" as="geometry">
            <mxPoint x="-1" as="offset" />
          </mxGeometry>
        </mxCell>
        <mxCell id="8RGstxOjwjv9jnQM3LrZ-80" value="" style="endArrow=diamondThin;endFill=0;endSize=24;html=1;rounded=0;fontSize=16;" edge="1" parent="WIyWlLk6GJQsqaUBKTNV-1">
          <mxGeometry width="160" relative="1" as="geometry">
            <mxPoint x="300" y="-898" as="sourcePoint" />
            <mxPoint x="480" y="-898" as="targetPoint" />
            <Array as="points" />
          </mxGeometry>
        </mxCell>
        <mxCell id="8RGstxOjwjv9jnQM3LrZ-81" value="1..*" style="resizable=0;align=left;verticalAlign=bottom;labelBackgroundColor=none;fontSize=16;" connectable="0" vertex="1" parent="WIyWlLk6GJQsqaUBKTNV-1">
          <mxGeometry x="306" y="-980" as="geometry">
            <mxPoint y="71" as="offset" />
          </mxGeometry>
        </mxCell>
        <mxCell id="8RGstxOjwjv9jnQM3LrZ-82" value="1..*" style="resizable=0;align=right;verticalAlign=bottom;labelBackgroundColor=none;fontSize=16;" connectable="0" vertex="1" parent="WIyWlLk6GJQsqaUBKTNV-1">
          <mxGeometry x="530" y="-1070" as="geometry">
            <mxPoint x="-61" y="164" as="offset" />
          </mxGeometry>
        </mxCell>
        <mxCell id="8RGstxOjwjv9jnQM3LrZ-83" value="" style="endArrow=diamondThin;endFill=0;endSize=24;html=1;rounded=0;fontSize=16;entryX=0.5;entryY=1;entryDx=0;entryDy=0;exitX=0.5;exitY=0;exitDx=0;exitDy=0;" edge="1" parent="WIyWlLk6GJQsqaUBKTNV-1" source="8RGstxOjwjv9jnQM3LrZ-64" target="8RGstxOjwjv9jnQM3LrZ-42">
          <mxGeometry width="160" relative="1" as="geometry">
            <mxPoint x="391" y="-627" as="sourcePoint" />
            <mxPoint x="183" y="-680" as="targetPoint" />
            <Array as="points">
              <mxPoint x="391" y="-680" />
              <mxPoint x="290" y="-680" />
              <mxPoint x="183" y="-680" />
            </Array>
          </mxGeometry>
        </mxCell>
      </root>
    </mxGraphModel>
  </diagram>
</mxfile>
